<?xml version="1.0" encoding="UTF-8"?>
<svg id="Capa_1" xmlns="http://www.w3.org/2000/svg" version="1.1" xmlns:xlink="http://www.w3.org/1999/xlink" viewBox="0 0 792 612">
  <!-- Generator: Adobe Illustrator 30.1.0, SVG Export Plug-In . SVG Version: 2.1.1 Build 136)  -->
  <defs>
    <style>
      .st0 {
        fill: #0a9ec0;
      }

      .st1 {
        fill: none;
      }

      .st2 {
        fill: #0872a3;
      }

      .st3 {
        clip-path: url(#clippath);
      }
    </style>
    <clipPath id="clippath">
      <ellipse class="st1" cx="407.03" cy="301.87" rx="291.61" ry="281.89"/>
    </clipPath>
  </defs>
  <g class="st3">
    <g>
      <path class="st0" d="M238.86,252.84h0c.86,0,1.56.57,1.56,1.28s-.7,1.28-1.56,1.28-1.56-.57-1.56-1.28.7-1.28,1.56-1.28M268.13,308.78c-9.77-8.57-22.66-15.99-27.62-21.36-1.99-2.15-4.09-3.98-6.05-6.19-1.34-1.51-3.19-3.56-3.52-6.51-.07-.61-.05-1.23.04-1.83.11-.7.32-1.37.6-1.94.66-1.34,1.71-2.15,2.72-1.7,1.41.64,6.22-2.94,8.88-6.01,2.67-3.07,3.05-5.57,1.73-5.25,0,0-2.92.12-2.84-.1.08-.24,3.18-.83,3.46-1.03.54-.39-1.01-7.8-6.42-7.93-5.4-.13-9.7,2.94-11.33,5.75-1.63,2.81-.96,4.22-2,5.24-1.04,1.03-4.89,6.91-5.48,15.22-.59,8.31,5.26,19.19,14.66,25.07,9.4,5.88,21.25,11.64,25.4,15.09,4.15,3.45,11.63,11.38,5.85,18.03-5.78,6.65-14.44,15.6-19.99,22-5.55,6.39-11.11,15.73-10.59,24.3.52,8.57,7.11,19.44,10.81,24.17,3.7,4.73,13.25,18.03,14.14,22.13.89,4.09,2.74,7.8-1.56,16.76-.3.62-.6,1.23-.91,1.83-1.71,3.34-3.49,6.58-5.07,10.06-1.79,3.95-3.34,8.2-4.28,12.81-.49,2.44-.81,4.97-.91,7.51-.05,1.35-.05,2.7.01,4.05.12,2.56.57,5.29,1.37,7.55.49,1.37,1.01,2.79,1.07,2.7.12-.21-1.13-5.88-1.35-8.4-.37-4.2.38-12.15,4.26-19.95,3.88-7.8,10.77-15.86,12.25-21.74,1.48-5.88,3.48-11.89-3.78-24.05-7.26-12.15-19.4-27.12-19.18-35.56.22-8.44,5.63-14.45,15.4-24.17,3.98-3.95,8.12-7.53,12.01-11.7,4.05-4.35,7.84-10.05,7.59-18.21-.24-7.9-5.36-13.11-9.38-16.64Z"/>
      <path class="st0" d="M274.76,252.84h0c-.86,0-1.56.57-1.56,1.28s.7,1.28,1.56,1.28,1.56-.57,1.56-1.28-.7-1.28-1.56-1.28M245.49,308.78c9.77-8.57,22.66-15.99,27.62-21.36,1.99-2.15,4.09-3.98,6.05-6.19,1.34-1.51,3.19-3.56,3.52-6.51.07-.61.05-1.23-.04-1.83-.11-.7-.32-1.37-.6-1.94-.66-1.34-1.71-2.15-2.72-1.7-1.41.64-6.22-2.94-8.88-6.01-2.67-3.07-3.05-5.57-1.74-5.25,0,0,2.92.12,2.85-.1-.08-.24-3.18-.83-3.46-1.03-.54-.39,1.01-7.8,6.42-7.93,5.4-.13,9.7,2.94,11.33,5.75,1.63,2.81.96,4.22,2,5.24,1.04,1.03,4.89,6.91,5.48,15.22.59,8.31-5.26,19.19-14.66,25.07-9.4,5.88-21.25,11.64-25.4,15.09-4.15,3.45-11.63,11.38-5.85,18.03,5.78,6.65,14.44,15.6,19.99,22,5.55,6.39,11.11,15.73,10.59,24.3-.52,8.57-7.11,19.44-10.81,24.17-3.7,4.73-13.25,18.03-14.14,22.13-.89,4.09-2.74,7.8,1.55,16.76.3.62.6,1.23.91,1.83,1.71,3.34,3.49,6.58,5.07,10.06,1.79,3.95,3.34,8.2,4.28,12.81.49,2.44.81,4.97.91,7.51.05,1.35.05,2.7-.01,4.05-.12,2.56-.57,5.29-1.37,7.55-.49,1.37-1.01,2.79-1.07,2.7-.12-.21,1.13-5.88,1.35-8.4.37-4.2-.38-12.15-4.26-19.95-3.88-7.8-10.77-15.86-12.25-21.74-1.48-5.88-3.48-11.89,3.78-24.05,7.26-12.15,19.4-27.12,19.18-35.56-.22-8.44-5.63-14.45-15.4-24.17-3.98-3.95-8.12-7.53-12.01-11.7-4.05-4.35-7.84-10.05-7.59-18.21.24-7.9,5.36-13.11,9.38-16.64Z"/>
      <path class="st0" d="M264.51,235.5l1.72-62.3c0-.71-.22-1.48-.88-1.48h-3.79v-1.28c3.34-2.53,5.61-7.56,5.61-13.35,0-8.34-4.71-15.1-10.53-15.1s-10.53,6.76-10.53,15.1c0,5.79,2.27,10.82,5.61,13.35v1.27h-3.81c-.63,0-.87.48-.88,1.48l1.2,62.3h16.26Z"/>
      <path class="st0" d="M223.66,166.02c-3.25-.67-6.4.93-9.47,2.23-27.85,15.14-47.61,5.29-63.23,12.82-2.84,11.09,11.33,19.91,18.06,17.19-.6,3.95,1.46,9.89,3.89,11.94,3.59,2.99,8.2,3.17,12.01.91.8,4.41,2.88,8.38,5.81,10.24,3.84,1.65,8.61,1.74,11.87-2.2,1,2.65,2.3,5.07,3.94,6.97,3.66,6.3,11.77.96,15.52-2.16,3.6,5.56,16.97,6.24,20.51,3.09-.44-34.61-.07-8.53-.63-35.66-5.88-.2-13.18-1.65-14.67-11.18-.34-3.84.4-13.58-3.6-14.21"/>
      <path class="st0" d="M289.37,166.02c3.25-.67,6.4.93,9.47,2.23,27.85,15.14,47.61,5.29,63.23,12.82,2.84,11.09-11.33,19.91-18.06,17.19.6,3.95-1.46,9.89-3.89,11.94-3.59,2.99-8.2,3.17-12.01.91-.8,4.41-2.88,8.38-5.82,10.24-3.84,1.65-8.61,1.74-11.87-2.2-1,2.65-2.3,5.07-3.94,6.97-3.66,6.3-11.77.96-15.52-2.16-3.6,5.56-16.97,6.24-20.51,3.09.45-34.61.07-8.53.63-35.66,5.89-.2,13.18-1.65,14.67-11.18.34-3.84-.4-13.58,3.6-14.21"/>
      <path class="st0" d="M437.74,170.78c9.36,0,16.95,10.89,16.95,24.31s-7.59,24.31-16.95,24.31-16.95-10.88-16.95-24.31,7.59-24.31,16.95-24.31"/>
      <path class="st0" d="M496.78,262.99c5.2,0,9.42,6.05,9.42,13.5s-4.22,13.51-9.42,13.51-9.42-6.05-9.42-13.51,4.22-13.5,9.42-13.5"/>
      <path class="st0" d="M555.84,170.78c9.36,0,16.95,10.89,16.95,24.31s-7.59,24.31-16.95,24.31-16.95-10.88-16.95-24.31,7.59-24.31,16.95-24.31"/>
      <path class="st2" d="M257.85,445.04l4.16-94.36,75.88-.25c.44,39.53,3.21,78.09,34.07,92.31v-29.06c-9.32-9.99-13.93-28.36-13.93-53.71v-124.47h-20.13v90.2h-74.99l1.62-90.2h-16.26l8.52,211.6,1.07-2.07Z"/>
      <path class="st2" d="M447.23,355.9v-98.19l39.79,69.95v21.91h19.52v-22.01c1.67-1.06,34.99-63.21,39.33-69.37v188.47c14.65,1.68,27.69,3.02,42.51,3.02,40.17,0,61.62-24.43,61.62-62.74,0-25.04-10.1-41.93-29.02-51.58,15.77-9.96,24.19-25.04,24.19-47.36,0-33.48-19.98-54.29-55.95-54.29-17.39,0-34.51,1.8-51.97,1.8l-37.96,68.39c-1.73,2.96-2.91,2.91-4.56-.2l-38.45-68.19c-17.87,0-39.43,0-57.29,0v22.92h29.32v97.47c0,37.87-11.27,71.04-41.1,66.02v24.83c38.54,3.69,60.03-38.84,60.03-90.86ZM565.87,258.43c6.52-.9,13.88-1.51,23.14-1.51,22.29,0,36.17,12.07,36.17,34.69,0,21.12-14.09,35.6-36.17,35.6h-23.14v-68.78ZM589.85,349.53c25.45,0,39.75,14.48,39.75,38.61s-14.72,37.71-39.75,37.71c-8.41,0-16.61-.61-23.97-1.81v-74.51s23.97,0,23.97,0Z"/>
    </g>
  </g>
</svg>