<?xml version="1.0" encoding="UTF-8"?>
<svg id="Capa_1" xmlns="http://www.w3.org/2000/svg" version="1.1" viewBox="0 0 792 612">
  <!-- Generator: Adobe Illustrator 30.1.0, SVG Export Plug-In . SVG Version: 2.1.1 Build 136)  -->
  <defs>
    <style>
      .st0 {
        font-size: 24.03px;
        letter-spacing: .08em;
      }

      .st0, .st1, .st2, .st3 {
        fill: #727070;
      }

      .st0, .st1, .st3 {
        font-family: Arial-Black, Arial;
        font-weight: 800;
      }

      .st4 {
        fill: #0a9ec0;
      }

      .st1 {
        font-size: 66.36px;
        letter-spacing: -.08em;
      }

      .st2 {
        font-family: ArialMT, Arial;
        font-size: 34.71px;
        letter-spacing: -.05em;
      }

      .st3 {
        font-size: 71.01px;
        letter-spacing: -.06em;
      }

      .st5 {
        fill: #0872a3;
      }
    </style>
  </defs>
  <g>
    <g>
      <text class="st1" transform="translate(385.37 305.21) scale(.75 1)"><tspan x="0" y="0">JULIO MÉNDEZ</tspan></text>
      <text class="st3" transform="translate(382.36 366.95) scale(.75 1)"><tspan x="0" y="0">BARRENECHE</tspan></text>
      <text class="st0" transform="translate(386.78 392.17) scale(.75 1)"><tspan x="0" y="0">DEPARTAMENTO DEL MAGDALENA</tspan></text>
    </g>
    <g>
      <path class="st4" d="M85.96,265.45h0c.6,0,1.09.37,1.09.83s-.49.83-1.09.83-1.09-.37-1.09-.83.49-.83,1.09-.83M106.37,301.59c-6.82-5.54-15.8-10.33-19.26-13.8-1.39-1.39-2.85-2.57-4.22-4-.94-.97-2.22-2.3-2.45-4.2-.05-.39-.04-.79.03-1.18.07-.45.22-.89.42-1.25.46-.86,1.2-1.39,1.9-1.1.98.41,4.34-1.9,6.2-3.89,1.86-1.98,2.13-3.6,1.21-3.39,0,0-2.04.08-1.98-.07.06-.16,2.21-.54,2.41-.67.38-.25-.71-5.04-4.48-5.12-3.77-.08-6.76,1.9-7.9,3.72-1.14,1.82-.67,2.72-1.39,3.39-.72.66-3.41,4.46-3.82,9.83-.41,5.37,3.67,12.39,10.22,16.2,6.56,3.8,14.82,7.52,17.71,9.75,2.89,2.23,8.11,7.35,4.08,11.65-4.03,4.3-10.07,10.08-13.94,14.21-3.87,4.13-7.75,10.16-7.38,15.7.36,5.54,4.96,12.56,7.54,15.62,2.58,3.06,9.24,11.65,9.86,14.29.62,2.64,1.91,5.04-1.08,10.83-.21.4-.42.79-.63,1.18-1.19,2.16-2.44,4.25-3.54,6.5-1.25,2.55-2.33,5.3-2.98,8.28-.34,1.58-.57,3.21-.64,4.85-.04.87-.04,1.75,0,2.62.08,1.65.4,3.42.96,4.88.34.89.71,1.8.74,1.74.09-.13-.79-3.8-.94-5.42-.26-2.71.26-7.85,2.97-12.89,2.71-5.04,7.51-10.25,8.54-14.05,1.03-3.8,2.43-7.68-2.63-15.53-5.06-7.85-13.53-17.52-13.37-22.97.16-5.45,3.93-9.34,10.74-15.62,2.77-2.55,5.66-4.87,8.37-7.56,2.83-2.81,5.47-6.49,5.3-11.77-.17-5.1-3.74-8.47-6.54-10.75Z"/>
      <path class="st4" d="M110.99,265.45h0c-.6,0-1.09.37-1.09.83s.49.83,1.09.83,1.09-.37,1.09-.83-.49-.83-1.09-.83M90.58,301.59c6.82-5.54,15.8-10.33,19.26-13.8,1.39-1.39,2.85-2.57,4.22-4,.94-.97,2.22-2.3,2.45-4.2.05-.39.04-.79-.03-1.18-.07-.45-.22-.89-.42-1.25-.46-.86-1.19-1.39-1.9-1.1-.98.41-4.34-1.9-6.2-3.89-1.86-1.98-2.13-3.6-1.21-3.39,0,0,2.04.08,1.98-.07-.06-.16-2.21-.54-2.41-.67-.38-.25.71-5.04,4.48-5.12,3.77-.08,6.76,1.9,7.9,3.72,1.14,1.82.67,2.72,1.39,3.39.72.66,3.41,4.46,3.82,9.83.41,5.37-3.67,12.39-10.22,16.2-6.56,3.8-14.82,7.52-17.71,9.75-2.89,2.23-8.11,7.35-4.08,11.65,4.03,4.3,10.07,10.08,13.94,14.21,3.87,4.13,7.75,10.16,7.38,15.7-.36,5.54-4.96,12.56-7.54,15.62-2.58,3.06-9.24,11.65-9.86,14.29-.62,2.64-1.91,5.04,1.08,10.83.21.4.42.79.63,1.18,1.19,2.16,2.44,4.25,3.54,6.5,1.25,2.55,2.33,5.3,2.98,8.28.34,1.58.57,3.21.64,4.85.04.87.04,1.75,0,2.62-.08,1.65-.4,3.42-.96,4.88-.34.89-.71,1.8-.75,1.74-.09-.13.79-3.8.94-5.42.26-2.71-.26-7.85-2.97-12.89-2.71-5.04-7.51-10.25-8.54-14.05-1.03-3.8-2.43-7.68,2.63-15.53,5.06-7.85,13.53-17.52,13.38-22.97-.15-5.45-3.93-9.34-10.74-15.62-2.77-2.55-5.66-4.87-8.37-7.56-2.83-2.81-5.47-6.49-5.3-11.77.17-5.1,3.74-8.47,6.54-10.75Z"/>
      <path class="st4" d="M103.85,254.25l1.2-40.25c0-.46-.16-.96-.61-.96h-2.65v-.82c2.33-1.64,3.91-4.88,3.91-8.62,0-5.39-3.29-9.75-7.34-9.75s-7.34,4.37-7.34,9.75c0,3.74,1.59,6.99,3.91,8.62v.82h-2.65c-.44,0-.61.31-.61.96l.84,40.25h11.34Z"/>
      <path class="st4" d="M75.36,209.37c-2.27-.44-4.46.6-6.6,1.44-19.42,9.78-33.21,3.42-44.1,8.28-1.98,7.17,7.9,12.86,12.6,11.11-.42,2.55,1.02,6.39,2.71,7.72,2.51,1.93,5.72,2.05,8.37.59.56,2.85,2.01,5.41,4.06,6.62,2.68,1.07,6,1.12,8.28-1.42.7,1.71,1.61,3.28,2.75,4.5,2.55,4.07,8.21.62,10.82-1.4,2.51,3.59,11.83,4.03,14.3,2-.31-22.36-.05-5.51-.44-23.04-4.1-.13-9.19-1.07-10.23-7.22-.24-2.48.28-8.77-2.51-9.18"/>
      <path class="st4" d="M121.18,209.37c2.27-.44,4.46.6,6.6,1.44,19.43,9.78,33.21,3.42,44.1,8.28,1.98,7.17-7.9,12.86-12.6,11.11.42,2.55-1.02,6.39-2.71,7.72-2.51,1.93-5.72,2.05-8.37.59-.56,2.85-2.01,5.41-4.06,6.62-2.68,1.07-6,1.12-8.28-1.42-.69,1.71-1.61,3.28-2.75,4.5-2.55,4.07-8.21.62-10.82-1.4-2.51,3.59-11.83,4.03-14.3,2,.31-22.36.05-5.51.44-23.04,4.11-.13,9.19-1.07,10.23-7.22.24-2.48-.28-8.77,2.51-9.18"/>
      <path class="st4" d="M224.67,212.44c6.53,0,11.82,7.03,11.82,15.71s-5.29,15.7-11.82,15.7-11.82-7.03-11.82-15.7,5.29-15.71,11.82-15.71"/>
      <path class="st4" d="M265.84,272.01c3.63,0,6.57,3.91,6.57,8.72s-2.94,8.72-6.57,8.72-6.57-3.91-6.57-8.72,2.94-8.72,6.57-8.72"/>
      <path class="st4" d="M307.04,212.44c6.53,0,11.82,7.03,11.82,15.71s-5.29,15.7-11.82,15.7-11.82-7.03-11.82-15.7,5.29-15.71,11.82-15.71"/>
      <path class="st5" d="M99.2,389.62l2.9-60.96,52.92-.16c.3,25.54,2.24,50.45,23.76,59.64v-18.77c-6.5-6.46-9.72-18.32-9.72-34.7v-80.42h-14.04v58.27h-52.3l1.13-58.27h-11.34l5.95,136.7.75-1.33Z"/>
      <path class="st5" d="M231.28,332.04v-63.44l27.75,45.19v14.16h13.61v-14.22c1.16-.69,24.4-40.84,27.43-44.82v121.76c10.22,1.09,19.31,1.95,29.65,1.95,28.02,0,42.98-15.79,42.98-40.53,0-16.18-7.04-27.09-20.24-33.32,11-6.43,16.87-16.18,16.87-30.6,0-21.63-13.94-35.08-39.02-35.08-12.13,0-24.07,1.16-36.25,1.16l-26.48,44.18c-1.21,1.91-2.03,1.88-3.18-.13l-26.82-44.05c-12.46,0-27.5,0-39.96,0v14.81h20.45v62.97c0,24.46-7.86,45.89-28.67,42.65v16.04c26.88,2.38,41.87-25.09,41.87-58.7ZM314.03,269.06c4.55-.58,9.68-.97,16.14-.97,15.55,0,25.23,7.8,25.23,22.41,0,13.64-9.83,23-25.23,23h-16.14v-44.43ZM330.76,327.92c17.75,0,27.72,9.35,27.72,24.94s-10.27,24.36-27.72,24.36c-5.87,0-11.59-.39-16.72-1.17v-48.13s16.72,0,16.72,0Z"/>
    </g>
  </g>
  <text class="st2" transform="translate(386.22 244.73) scale(.75 1)"><tspan x="0" y="0">E.S.E. HOSPITAL UNIVERSITARIO</tspan></text>
</svg>